<?xml version="1.0" encoding="UTF-8"?>
<svg version="1.1" xmlns="http://www.w3.org/2000/svg" width="1024" height="1024">
<path d="M0 0 C337.92 0 675.84 0 1024 0 C1024 337.92 1024 675.84 1024 1024 C686.08 1024 348.16 1024 0 1024 C0 686.08 0 348.16 0 0 Z " fill="#F7F7F7" transform="translate(0,0)"/>
<path d="M0 0 C1.14274384 0.00054382 2.28548767 0.00108765 3.46286011 0.00164795 C21.88503616 0.04185243 39.62260154 0.92291281 57.75 4.375 C58.89533203 4.58930664 60.04066406 4.80361328 61.22070312 5.02441406 C134.46914767 19.13593437 206.94401234 59.45488003 252.75 119.375 C253.7383673 120.61139218 254.72945285 121.84561433 255.72265625 123.078125 C256.75299692 124.3642688 257.78294862 125.6507243 258.8125 126.9375 C259.30298828 127.54634033 259.79347656 128.15518066 260.29882812 128.7824707 C263.75 133.14656914 263.75 133.14656914 263.75 135.375 C200.72 135.375 137.69 135.375 72.75 135.375 C85.62563898 160.44013685 85.62563898 160.44013685 98.75 185.375 C98.75 186.035 98.75 186.695 98.75 187.375 C119.54 187.375 140.33 187.375 161.75 187.375 C161.73259766 194.11067383 161.73259766 194.11067383 161.71484375 200.98242188 C161.68225714 215.85832969 161.69335251 230.73397171 161.72665405 245.60987091 C161.74577814 254.62467496 161.75022977 263.63902599 161.71923828 272.65380859 C161.69224076 280.51794443 161.69369176 288.38149313 161.72825909 296.24560785 C161.74557043 300.40368436 161.74934642 304.56071053 161.71896362 308.71873474 C161.40049144 332.68560795 161.40049144 332.68560795 170.75 354.375 C185.08333333 383.04166667 199.41666667 411.70833333 213.75 440.375 C214.08 356.885 214.41 273.395 214.75 187.375 C241.15 187.375 267.55 187.375 294.75 187.375 C298.5472666 195.72898653 301.76046719 203.66509955 304.625 212.3125 C304.83932678 212.95917633 305.05365356 213.60585266 305.2744751 214.27212524 C312.73920784 236.91256915 317.8859339 259.69632403 320.75 283.375 C320.83588379 284.03229095 320.92176758 284.68958191 321.01025391 285.36679077 C321.73446274 291.24003683 321.92523726 297.03888285 321.953125 302.953125 C321.96018463 303.9496106 321.96724426 304.94609619 321.97451782 305.97277832 C322.27809234 361.51343501 314.16527838 414.79565937 287.74755859 464.48144531 C286.698385 466.47297502 285.68545022 468.48036687 284.67578125 470.4921875 C266.39701464 506.52260823 237.89112933 541.83945876 205.75 566.375 C204.44206223 567.39891479 203.1348261 568.42372621 201.828125 569.44921875 C158.14041866 603.5330327 107.39289164 625.91810512 52.75 635.375 C51.84459473 635.53871094 50.93918945 635.70242188 50.00634766 635.87109375 C33.80947273 638.66834173 17.51323671 638.68642169 1.125 638.75 C0.05156342 638.75794586 -1.02187317 638.76589172 -2.12783813 638.77407837 C-87.95409688 639.26145298 -169.45533211 601.37951205 -230.00170898 541.74072266 C-234.96793756 536.79857559 -239.79184683 531.78385664 -244.25 526.375 C-244.66685059 525.87194336 -245.08370117 525.36888672 -245.51318359 524.85058594 C-280.03058591 483.02658021 -305.73062852 433.03210241 -315.25 379.375 C-315.43788086 378.31845215 -315.62576172 377.2619043 -315.81933594 376.17333984 C-326.75536697 313.51707434 -320.47702365 247.64790463 -294.25 189.375 C-293.26 189.375 -292.27 189.375 -291.25 189.375 C-290.9504541 190.06907959 -290.6509082 190.76315918 -290.34228516 191.47827148 C-269.87326673 238.87758522 -248.96388336 286.08666283 -227.97212219 333.25639343 C-226.39462432 336.80122982 -224.81819321 340.34653561 -223.2434082 343.89257812 C-219.11615406 353.18579306 -214.97471467 362.4723769 -210.8125 371.75 C-210.24606216 373.0137391 -209.67965652 374.27749263 -209.11328125 375.54125977 C-206.70759914 380.90761296 -204.29970812 386.2728783 -201.87109375 391.62890625 C-197.10142889 402.15483937 -192.47861243 412.74026239 -187.89749146 423.34924316 C-183.87434422 432.66350699 -179.78110264 441.94187379 -175.59375 451.18359375 C-172.59117284 457.8156159 -169.64158277 464.47128179 -166.6875 471.125 C-166.41525604 471.73806 -166.14301208 472.35112 -165.86251831 472.98275757 C-164.32438085 476.44655836 -162.78688714 479.91064427 -161.25 483.375 C-157.43960815 477.6162492 -154.39389928 471.69838817 -151.5 465.4375 C-146.77360145 455.38714097 -141.78728993 445.48980855 -136.6875 435.625 C-136.13231689 434.55102463 -136.13231689 434.55102463 -135.56591797 433.45535278 C-130.65460629 423.96330881 -125.70450424 414.49200694 -120.7109375 405.04296875 C-113.76928191 391.89659436 -106.87180727 378.72477823 -100.27246094 365.40283203 C-94.6304651 354.05732327 -88.6965989 342.85230059 -82.75 331.6640625 C-77.77894464 322.30133124 -72.97210424 312.8655067 -68.25 303.375 C-64.04441721 294.92279753 -59.79277663 286.50337112 -55.359375 278.16796875 C-50.90807474 269.7789798 -46.58550537 261.32419367 -42.25 252.875 C-37.17064952 242.97926867 -32.08482015 233.08899151 -26.87939453 223.25878906 C-23.25207599 216.40286111 -19.68910248 209.51394753 -16.125 202.625 C-11.23290253 193.17199281 -6.30284997 183.74317215 -1.25 174.375 C2.1365717 177.16910309 3.77560502 180.98543463 5.69921875 184.83203125 C6.07552933 185.57144455 6.4518399 186.31085785 6.83955383 187.07267761 C8.04439509 189.44152938 9.2415384 191.81415437 10.4375 194.1875 C11.99950011 197.27959637 13.56549705 200.36961015 15.13671875 203.45703125 C15.52202759 204.21417923 15.90733643 204.97132721 16.30432129 205.75141907 C19.35037476 211.69241683 22.5982302 217.49048242 25.97338867 223.25 C28.63658708 227.93447707 30.98893691 232.76339727 33.3671875 237.59765625 C40.9597709 252.90571264 48.94605112 268.01930607 57.18798828 282.98632812 C64.30897667 295.96647815 71.12911938 309.13323875 77.75 322.375 C64.22 322.375 50.69 322.375 36.75 322.375 C31.61041534 313.38072685 26.50993922 304.37768841 21.5 295.3125 C15.01685873 283.60876272 8.42764916 271.96884888 1.75 260.375 C0.76 260.375 -0.23 260.375 -1.25 260.375 C-1.70101074 261.23943726 -1.70101074 261.23943726 -2.16113281 262.12133789 C-2.58749023 262.93852295 -3.01384766 263.75570801 -3.453125 264.59765625 C-3.93281738 265.51708008 -4.41250977 266.43650391 -4.90673828 267.38378906 C-5.98319133 269.44696324 -7.05968989 271.51011368 -8.13623047 273.57324219 C-10.88092471 278.83344193 -13.62501331 284.09395479 -16.3671875 289.35546875 C-29.59203295 314.72750047 -42.91781514 340.04355442 -56.6875 365.125 C-60.28491748 371.68337781 -63.74913429 378.27899321 -67.04174805 384.99487305 C-70.77222333 392.54161417 -74.82246337 399.91689636 -78.83105469 407.31835938 C-82.74503771 414.55411915 -86.59052849 421.82074473 -90.375 429.125 C-94.16008169 436.42684591 -98.03125297 443.67142499 -102 450.875 C-107.27682297 460.46061461 -112.29694053 470.16748529 -117.28991699 479.90258789 C-121.94640821 488.9766354 -126.71298326 497.97297494 -131.64550781 506.90087891 C-138.79430929 519.90955344 -145.47269077 533.17093202 -152.25 546.375 C-125.52 545.88 -125.52 545.88 -98.25 545.375 C-93.3 535.475 -93.3 535.475 -88.25 525.375 C-83.91556453 518.08526762 -83.91556453 518.08526762 -81.91015625 514.8359375 C-78.28491073 508.84565765 -74.93745495 502.69589457 -71.5625 496.5625 C-71.21874329 495.93786865 -70.87498657 495.3132373 -70.52081299 494.66967773 C-64.46498888 483.65446134 -58.49719666 472.59234661 -52.5546875 461.515625 C-49.93321489 456.63384005 -47.28289477 451.76868037 -44.61816406 446.91040039 C-34.21730381 427.94362563 -24.34097782 408.72570684 -14.72875977 389.34838867 C-12.57630151 385.02037331 -10.41170273 380.69840547 -8.25 376.375 C29.04 376.375 66.33 376.375 104.75 376.375 C118.45561211 401.50195553 118.45561211 401.50195553 123.92102051 412.19604492 C125.60553407 415.49178548 127.29963131 418.78260352 128.9921875 422.07421875 C129.32089844 422.71406708 129.64960937 423.35391541 129.98828125 424.01315308 C133.00795335 429.88738286 136.07632074 435.73491884 139.16235352 441.57446289 C142.87036221 448.592331 146.53971722 455.6301239 150.20214844 462.671875 C154.67598751 471.26264786 159.21764154 479.81387847 163.75 488.375 C182.56 488.705 201.37 489.035 220.75 489.375 C218.07765422 482.69413554 215.36662019 476.32107892 212.125 469.9375 C211.74988281 469.18791016 211.37476563 468.43832031 210.98828125 467.66601562 C208.09723265 461.92575031 205.10287932 456.24162897 202.1015625 450.55859375 C196.07453035 439.14120374 190.21575755 427.63932263 184.35449219 416.13623047 C177.91283389 403.49893377 171.38900982 390.90977613 164.75 378.375 C164.2250293 377.38258301 163.70005859 376.39016602 163.15917969 375.36767578 C162.34757951 373.83373303 161.53583377 372.29986728 160.72387695 370.76611328 C157.43443054 364.54386339 154.18660471 358.30698054 151.0625 352 C147.35562478 344.5186939 143.52782756 337.10090928 139.6875 329.6875 C139.36417694 329.06325134 139.04085388 328.43900269 138.70773315 327.7958374 C136.71228723 323.94382342 134.71544414 320.09253502 132.71807861 316.24151611 C130.01867455 311.03689626 127.32095242 305.83140859 124.625 300.625 C124.02518311 299.46726074 123.42536621 298.30952148 122.80737305 297.11669922 C119.02168076 289.80240478 115.26495982 282.47370498 111.5234375 275.13671875 C110.60044213 273.32844084 109.67742772 271.52017266 108.75439453 269.71191406 C106.9732019 266.22215707 105.19611037 262.73035494 103.42138672 259.23730469 C99.1173027 250.79001278 94.71072761 242.41845528 90.109375 234.12890625 C85.78231006 226.3330737 81.71928045 218.44588639 77.77996826 210.44891357 C75.877032 206.6172175 73.92343463 202.81140643 71.97265625 199.00390625 C71.55864563 198.19547272 71.14463501 197.38703918 70.71807861 196.55410767 C69.41695834 194.01485871 68.11480429 191.47614189 66.8125 188.9375 C65.88881585 187.13575182 64.96515079 185.33399385 64.04150391 183.53222656 C61.27947053 178.14555918 58.51527285 172.76000502 55.75 167.375 C55.33784241 166.57237732 54.92568481 165.76975464 54.5010376 164.94281006 C47.27589807 150.87527367 40.04845812 136.80960109 32.6875 122.8125 C28.69704981 115.22139163 24.81183203 107.58614074 21.00341797 99.90234375 C18.49060002 94.83559434 15.97026911 89.77260643 13.44619751 84.7114563 C12.52000502 82.85264877 11.59626712 80.99263542 10.67260742 79.13256836 C7.84106014 73.45328451 4.98839414 67.83377824 1.75 62.375 C-1.52474235 66.17152703 -3.82944015 70.14924357 -6.0078125 74.6328125 C-6.35576874 75.33534149 -6.70372498 76.03787048 -7.06222534 76.76168823 C-8.17225376 79.00499903 -9.27411175 81.25219163 -10.375 83.5 C-11.81170632 86.42095551 -13.25212386 89.34005455 -14.6953125 92.2578125 C-15.0627356 93.00097717 -15.43015869 93.74414185 -15.80871582 94.50982666 C-18.8947084 100.72228986 -22.11170418 106.86035934 -25.35836792 112.99002075 C-30.00770234 121.77859614 -34.52012061 130.63598009 -39.03289795 139.49523926 C-41.55789552 144.45153311 -44.08731646 149.40556736 -46.6171875 154.359375 C-47.11123077 155.32679626 -47.60527405 156.29421753 -48.11428833 157.29095459 C-52.45793298 165.79153047 -56.84060458 174.27103894 -61.24511719 182.74023438 C-65.76943323 191.44021358 -70.26279963 200.15584274 -74.75 208.875 C-80.50774903 220.06122659 -86.2816419 231.23879991 -92.07763672 242.40527344 C-95.06653749 248.163769 -98.05245834 253.92377003 -101.03125 259.6875 C-101.34801697 260.30040894 -101.66478394 260.91331787 -101.9911499 261.5447998 C-102.63208709 262.78498986 -103.27301726 264.02518355 -103.91394043 265.26538086 C-108.63221884 274.39509676 -113.36241128 283.51829612 -118.125 292.625 C-123.38528379 302.68525903 -128.58501469 312.7762151 -133.77871704 322.87094116 C-140.56429314 336.05893975 -147.39269513 349.22412851 -154.25 362.375 C-154.91 362.375 -155.57 362.375 -156.25 362.375 C-164.61294858 344.78918733 -172.93354075 327.19010654 -180.9375 309.4375 C-185.56491938 299.17581346 -190.31626322 288.99338853 -195.25 278.875 C-200.18374149 268.75660182 -204.93481071 258.57406976 -209.5625 248.3125 C-215.68155782 234.74406663 -221.97332062 221.26403398 -228.3527832 207.81616211 C-228.693564 207.09779678 -229.03434479 206.37943146 -229.38545227 205.63929749 C-230.00564282 204.33278606 -230.62639415 203.02654052 -231.24797058 201.72068787 C-234.62109713 194.62327223 -237.9265478 187.49668329 -241.25 180.375 C-256.76 180.045 -272.27 179.715 -288.25 179.375 C-278.02567131 153.81417828 -261.13198075 130.00706577 -242.515625 109.8515625 C-240.63853839 107.79971266 -238.81625363 105.71839046 -237 103.61328125 C-227.36730087 92.5802111 -216.81824368 82.35092016 -205.25 73.375 C-204.08872009 72.42744429 -202.93003411 71.47670405 -201.7734375 70.5234375 C-183.27958442 55.34271272 -162.72073889 42.51185563 -141.10302734 32.25878906 C-139.31648097 31.40670766 -137.54268496 30.5280491 -135.76953125 29.6484375 C-93.3932279 9.04819237 -46.87104924 -0.08419109 0 0 Z " fill="#F7F7F7" transform="translate(511.25,193.625)"/>
<path d="M0 0 C0.96428925 0.00054382 1.92857849 0.00108765 2.92208862 0.00164795 C41.37932602 0.10023502 77.79608783 6.64833383 114.4375 18.375 C115.3337207 18.65956055 116.22994141 18.94412109 117.15332031 19.23730469 C160.91867531 33.31014454 203.16437826 56.98688206 237.03515625 88.22265625 C239.47059854 90.40465414 241.99207323 92.41706053 244.5625 94.4375 C249.56723552 98.48691563 254.13626639 102.88679109 258.6875 107.4375 C259.3489502 108.0982251 260.01040039 108.7589502 260.69189453 109.43969727 C265.13145642 113.92876065 269.32165064 118.58925981 273.4375 123.375 C274.30632813 124.36242187 275.17515625 125.34984375 276.0703125 126.3671875 C283.78466106 135.2906816 290.68398161 144.70965436 297.4375 154.375 C297.87416992 154.99568359 298.31083984 155.61636719 298.76074219 156.25585938 C312.84955165 176.38911445 324.27143703 198.04136131 334.4375 220.375 C334.80456055 221.1798584 335.17162109 221.9847168 335.54980469 222.81396484 C359.43056995 275.95285927 368.09629449 339.15995256 360.74951172 396.88964844 C360.41669101 399.54075547 360.13101979 402.1947385 359.84765625 404.8515625 C353.25791679 463.66321577 329.49628085 521.75600596 294.4375 569.375 C294.02338867 569.93783691 293.60927734 570.50067383 293.18261719 571.08056641 C277.60772351 592.07571732 259.73907616 613.03045915 239.14453125 629.22265625 C236.72090982 631.14966261 234.39002951 633.15399319 232.06494141 635.19775391 C185.0102035 676.23300896 123.41827304 701.51034178 62.6875 713.125 C61.65987549 713.32391846 60.63225098 713.52283691 59.57348633 713.7277832 C40.58776016 717.19040175 21.69531536 717.74881339 2.4375 717.6875 C0.61283707 717.68426727 0.61283707 717.68426727 -1.24868774 717.68096924 C-36.25218477 717.58138603 -69.05773637 712.82972717 -102.5625 702.375 C-103.49449219 702.08931152 -104.42648437 701.80362305 -105.38671875 701.50927734 C-121.30740414 696.59118845 -136.47917602 690.44333592 -151.5625 683.375 C-152.44921387 682.95992187 -153.33592773 682.54484375 -154.24951172 682.1171875 C-173.66761824 672.92869214 -192.16367778 661.97262824 -209.5625 649.375 C-210.11083496 648.97829102 -210.65916992 648.58158203 -211.22412109 648.17285156 C-218.55383716 642.83604884 -225.60740011 637.18821782 -232.5625 631.375 C-233.59501765 630.53120787 -234.62757099 629.6874594 -235.66015625 628.84375 C-243.15218235 622.64548736 -250.12184111 615.99685963 -257 609.125 C-257.84038818 608.28541748 -258.68077637 607.44583496 -259.54663086 606.58081055 C-264.41484106 601.66893056 -269.09560272 596.65436895 -273.5625 591.375 C-274.07917236 590.7651123 -274.59584473 590.15522461 -275.12817383 589.52685547 C-291.528462 569.97756635 -305.50252401 548.84771162 -317.5625 526.375 C-318.19043457 525.21315186 -318.19043457 525.21315186 -318.83105469 524.02783203 C-346.07979714 473.11570797 -359.03973635 416.14895398 -358.9375 358.625 C-358.93695618 357.46679749 -358.93641235 356.30859497 -358.93585205 355.11529541 C-358.73369748 261.09401446 -319.32204254 172.03889774 -253.5625 105.375 C-244.9654493 96.89257664 -236.06878376 88.8292121 -226.5625 81.375 C-225.23788001 80.30909219 -223.91369658 79.24264173 -222.58984375 78.17578125 C-200.83341429 60.78569404 -176.79633322 46.16815113 -151.5625 34.375 C-150.37889893 33.81546631 -150.37889893 33.81546631 -149.17138672 33.24462891 C-119.03686579 19.13800366 -86.81679437 9.6940344 -54.0625 4.0625 C-52.77653931 3.84122437 -52.77653931 3.84122437 -51.46459961 3.61547852 C-34.39799509 0.90485339 -17.26027817 -0.0371928 0 0 Z M-50.5625 43.375 C-51.67802246 43.57899414 -52.79354492 43.78298828 -53.94287109 43.99316406 C-70.14806879 47.03953725 -85.9330074 51.13539335 -101.5625 56.375 C-102.90223877 56.81900146 -102.90223877 56.81900146 -104.26904297 57.27197266 C-128.04259715 65.24242163 -150.37540203 75.98935283 -171.5625 89.375 C-172.6467627 90.05973389 -172.6467627 90.05973389 -173.75292969 90.75830078 C-182.73387776 96.48413607 -191.23316347 102.74356668 -199.5625 109.375 C-200.48546875 110.10332031 -201.4084375 110.83164062 -202.359375 111.58203125 C-217.82462033 123.98551558 -232.99202198 138.02344277 -245.5625 153.375 C-246.80773437 154.84453125 -246.80773437 154.84453125 -248.078125 156.34375 C-261.42904887 172.34791817 -272.72744977 190.02634902 -282.5625 208.375 C-283.96489798 210.84415095 -285.37273069 213.31001515 -286.78515625 215.7734375 C-287.70805011 217.37816991 -287.70805011 217.37816991 -287.5625 219.375 C-264.2975 219.87 -264.2975 219.87 -240.5625 220.375 C-233.97018344 233.98494387 -227.40730774 247.59125801 -221.13793945 261.35253906 C-216.60795893 271.29379447 -212.02903481 281.21203907 -207.4375 291.125 C-207.0307605 292.00322418 -206.624021 292.88144836 -206.20495605 293.7862854 C-200.06819848 307.03026807 -193.86847333 320.24337144 -187.62289429 333.43634033 C-180.86302986 347.71578454 -174.18780775 362.03252719 -167.5625 376.375 C-166.98958669 377.6149104 -166.41666993 378.85481922 -165.84375 380.09472656 C-162.41326144 387.51991423 -158.98627194 394.9467127 -155.5625 402.375 C-154.9025 402.375 -154.2425 402.375 -153.5625 402.375 C-153.01537354 401.30580322 -152.46824707 400.23660645 -151.90454102 399.13500977 C-133.30010474 362.78130483 -114.66847226 326.44158053 -95.75 290.25 C-90.48765615 280.18112689 -85.28259203 270.08317907 -80.08432007 259.98114014 C-75.25921501 250.60430858 -70.42199125 241.23407225 -65.5625 231.875 C-58.61982091 218.50088182 -51.71889442 205.10543038 -44.82246399 191.70742798 C-42.32812498 186.86164044 -39.8324767 182.01652934 -37.3359375 177.171875 C-36.98837402 176.49737305 -36.64081055 175.82287109 -36.28271484 175.12792969 C-34.88096004 172.40760255 -33.47920291 169.68727663 -32.07727051 166.96704102 C-27.96979441 158.99682613 -23.86760928 151.02393305 -19.7734375 143.046875 C-18.57067738 140.70446268 -17.36784735 138.36208627 -16.16500854 136.01971436 C-15.04281342 133.83341074 -13.92189468 131.64645621 -12.80102539 129.45947266 C-8.14335859 120.38312683 -3.39014984 111.36206795 1.4375 102.375 C3.62499086 105.15929674 5.37307947 107.95312831 7.00390625 111.09375 C7.48424316 112.01575195 7.96458008 112.93775391 8.45947266 113.88769531 C8.96784668 114.87350586 9.4762207 115.85931641 10 116.875 C10.53157715 117.89948242 11.0631543 118.92396484 11.61083984 119.97949219 C15.41006549 127.32382985 19.12315514 134.70872259 22.79833984 142.11572266 C25.49572714 147.53728894 28.28031653 152.9044576 31.125 158.25 C36.17356627 167.74480461 40.96478279 177.36582287 45.7331543 187.00341797 C49.55456076 194.70989165 53.50440265 202.33978039 57.52587891 209.94372559 C62.87268667 220.06620024 68.05871505 230.27063423 73.26025391 240.46826172 C78.82423993 251.37219444 84.4483568 262.24048217 90.16455078 273.06542969 C93.18098454 278.7783226 96.15616877 284.51222824 99.125 290.25 C99.714021 291.38743652 100.30304199 292.52487305 100.90991211 293.69677734 C102.14244552 296.07696451 103.37456768 298.457364 104.60644531 300.83789062 C106.37928224 304.26253881 108.15423947 307.68607992 109.9296875 311.109375 C115.526556 321.90852042 121.10674073 332.71522053 126.6328125 343.55078125 C128.46308635 347.13825336 130.29377205 350.72551481 132.125 354.3125 C132.57830688 355.20043243 133.03161377 356.08836487 133.49865723 357.00320435 C139.07768691 367.92207313 144.7337948 378.77809338 150.67211914 389.50683594 C153.76234475 395.09593726 156.68446419 400.74452582 159.50317383 406.47485352 C162.41659254 412.38700223 165.48357423 418.21336138 168.58642578 424.02807617 C171.17578079 428.903083 173.67198014 433.82078223 176.1328125 438.76171875 C180.35698364 447.24264545 184.66554402 455.6791121 188.99008179 464.10922241 C190.34643439 466.75366082 191.70128129 469.39886668 193.0559082 472.04418945 C197.59846433 480.91135792 202.15522646 489.77088008 206.73828125 498.6171875 C207.97343225 501.00497995 209.20832678 503.39290489 210.44317627 505.78085327 C211.6013274 508.01679731 212.76420905 510.25023715 213.92724609 512.48364258 C214.63271433 513.84705035 215.33796761 515.21056939 216.04296875 516.57421875 C216.51806633 517.48087784 216.51806633 517.48087784 217.00276184 518.40585327 C218.8845653 522.06049751 220.11571661 525.40964984 221.4375 529.375 C202.6275 529.045 183.8175 528.715 164.4375 528.375 C161.715 523.074375 158.9925 517.77375 156.1875 512.3125 C146.95781744 494.35785716 137.65489654 476.44331593 128.23120117 458.58959961 C125.93531261 454.23637428 123.65688348 449.87466576 121.39453125 445.50390625 C120.87181641 444.49585938 120.34910156 443.4878125 119.81054688 442.44921875 C118.80797845 440.51434952 117.80777524 438.57825189 116.81054688 436.640625 C115.8900983 434.86574624 114.94072226 433.10547063 113.95858765 431.3639679 C112.4375 428.375 112.4375 428.375 111.51052856 425.25065613 C110.01595552 421.2295745 108.73562761 419.16876047 105.4375 416.375 C97.34596082 414.03608787 88.35400469 414.98733999 80.03515625 415.203125 C77.51171403 415.22551558 74.98821952 415.24259284 72.46470642 415.25457764 C66.51031528 415.29565431 60.55830361 415.39013474 54.60513347 415.51077151 C47.82434114 415.64517873 41.04341752 415.71094605 34.2616235 415.77111673 C20.31877803 415.89635252 6.378285 416.10724332 -7.5625 416.375 C-13.35129081 427.93968239 -13.35129081 427.93968239 -19.10922241 439.51974487 C-20.64748776 442.62441815 -22.19110909 445.72642333 -23.734375 448.82861328 C-24.53432277 450.43857311 -25.33283376 452.04924766 -26.12988281 453.66064453 C-31.61195646 464.73947016 -37.38651268 475.60056063 -43.44506836 486.37414551 C-46.15819103 491.23221779 -48.75599961 496.1533086 -51.375 501.0625 C-56.45824491 510.5525762 -61.67819719 519.95305285 -67.01000977 529.30541992 C-70.60116398 535.62127887 -74.03657994 542.00061149 -77.38964844 548.4453125 C-79.4232866 552.32140809 -81.55270263 556.10759279 -83.84301758 559.83813477 C-89.00707324 568.29475533 -93.05035222 576.35070444 -97.5625 585.375 C-115.3825 585.705 -133.2025 586.035 -151.5625 586.375 C-148.9225 581.425 -146.2825 576.475 -143.5625 571.375 C-142.22200944 568.73410778 -140.89263675 566.08746171 -139.5859375 563.4296875 C-135.59564703 555.37604334 -131.41069864 547.43336787 -127.1875 539.5 C-126.4034426 538.02354541 -125.61959352 536.54698017 -124.8359375 535.0703125 C-123.21596561 532.01813092 -121.59512042 528.96641565 -119.97363281 525.91503906 C-116.5342293 519.4409694 -113.10587109 512.96105701 -109.67715454 506.48132324 C-107.8074455 502.94820023 -105.93685602 499.4155434 -104.06640625 495.8828125 C-101.05269498 490.1904694 -98.0397939 484.49769808 -95.02734375 478.8046875 C-90.91290323 471.02930058 -86.79624214 463.25509167 -82.67828369 455.48156738 C-81.55658193 453.36382686 -80.43524372 451.24589414 -79.31396484 449.12792969 C-77.10680683 444.95940357 -74.89792266 440.79179589 -72.6875 436.625 C-72.33083252 435.9525827 -71.97416504 435.28016541 -71.60668945 434.58737183 C-67.29530721 426.4636737 -62.93524537 418.36940705 -58.5 410.3125 C-53.28140873 400.83139526 -48.33122632 391.22014172 -43.39450073 381.59051514 C-39.40145164 373.80534882 -35.36346377 366.05856579 -31.0625 358.4375 C-27.86188874 352.76601425 -24.83861844 347.04684318 -21.95996094 341.20581055 C-18.65255497 334.51003095 -15.25022084 327.86361366 -11.82943726 321.22525024 C-11.15733487 319.91979074 -10.48659438 318.61362907 -9.81729126 317.30673218 C-8.86612015 315.45003214 -7.91020586 313.59584674 -6.953125 311.7421875 C-6.39657227 310.66050293 -5.84001953 309.57881836 -5.26660156 308.46435547 C-3.51672036 305.29200636 -1.61281849 302.35865571 0.4375 299.375 C3.37350584 302.10457099 5.35126515 304.66476774 7.21484375 308.20703125 C7.72192871 309.15932617 8.22901367 310.11162109 8.75146484 311.09277344 C9.28723145 312.1140332 9.82299805 313.13529297 10.375 314.1875 C11.53076735 316.35642074 12.68836928 318.52436471 13.84765625 320.69140625 C14.43949707 321.79887207 15.03133789 322.90633789 15.64111328 324.04736328 C18.464735 329.27785581 21.38076903 334.45452397 24.3125 339.625 C24.82288818 340.52710205 25.33327637 341.4292041 25.85913086 342.35864258 C26.86143043 344.1245526 27.88587535 345.87808211 28.93237305 347.61816406 C30.4375 350.375 30.4375 350.375 31.63989258 353.68652344 C33.19351985 357.43911809 34.38047415 359.67325924 37.4375 362.375 C44.14390402 364.37353332 51.48501126 363.49488544 58.375 363.125 C60.31819537 363.06476596 62.26156911 363.01002014 64.20507812 362.9609375 C68.95363625 362.82907405 73.69361111 362.62232527 78.4375 362.375 C73.91887125 353.29925576 69.38449046 344.23518863 64.6875 335.25 C64.18001221 334.27756348 63.67252441 333.30512695 63.1496582 332.30322266 C59.23995267 324.84071917 55.21013997 317.44893245 51.14941406 310.06787109 C46.61238532 301.78025145 42.2847403 293.38927698 37.96704102 284.98632812 C33.51548831 276.32772725 28.94668489 267.74680888 24.22900391 259.22973633 C20.96747282 253.2953647 17.84025176 247.30017866 14.76171875 241.26953125 C14.15015175 240.07257629 14.15015175 240.07257629 13.52622986 238.85144043 C11.47614769 234.83498999 9.4345529 230.81446587 7.40307617 226.78857422 C6.65167727 225.31079748 5.90013756 223.83309232 5.1484375 222.35546875 C4.80314499 221.66491898 4.45785248 220.9743692 4.10209656 220.26289368 C2.44993435 216.69111356 2.44993435 216.69111356 -0.5625 214.375 C-1.34729736 215.9070105 -1.34729736 215.9070105 -2.14794922 217.4699707 C-6.34005831 225.65164872 -10.5360551 233.83132578 -14.73828125 242.0078125 C-15.34632095 243.19175346 -15.34632095 243.19175346 -15.96664429 244.39961243 C-21.07235585 254.33018697 -26.27783462 264.20656125 -31.52587891 274.0625 C-33.83227139 278.39449659 -36.13602377 282.72788953 -38.4375 287.0625 C-38.8300296 287.80173706 -39.2225592 288.54097412 -39.62698364 289.3026123 C-45.059519 299.5433567 -50.36265964 309.83317866 -55.50292969 320.22436523 C-58.86790215 327.02083254 -62.35786426 333.74026628 -65.91601562 340.43725586 C-68.88464977 346.04156538 -71.74366853 351.69402103 -74.5625 357.375 C-78.54570178 365.39632826 -82.6665234 373.33456757 -86.85546875 381.25 C-93.56666254 393.93478349 -100.25427081 406.64018943 -106.625 419.5 C-110.71926549 427.76427056 -115.00395667 435.92700616 -119.28125 444.09765625 C-123.37488966 451.91943203 -127.43002908 459.76110773 -131.48632812 467.60229492 C-134.05216976 472.55674189 -136.62270987 477.50749925 -139.25 482.4296875 C-144.66692108 492.58188087 -149.74191173 502.85861425 -154.62939453 513.27783203 C-155.35425049 514.81286377 -155.35425049 514.81286377 -156.09375 516.37890625 C-156.52236328 517.29486572 -156.95097656 518.2108252 -157.39257812 519.15454102 C-158.5625 521.375 -158.5625 521.375 -160.5625 523.375 C-169.03455218 504.99025636 -177.27924201 486.51827893 -185.3125 467.9375 C-191.80725622 452.91824013 -198.41017101 437.95643985 -205.1875 423.0625 C-211.45317896 409.292187 -217.62676401 395.48680511 -223.6875 381.625 C-229.41982744 368.51447397 -235.20237547 355.42892438 -241.0625 342.375 C-249.2940879 324.0319046 -257.38650268 305.62909678 -265.44628906 287.20996094 C-267.14245944 283.33380215 -268.84086665 279.45863013 -270.54042053 275.58395386 C-277.2836263 260.21041767 -283.98735495 244.8213725 -290.5625 229.375 C-291.5525 229.375 -292.5425 229.375 -293.5625 229.375 C-303.91251311 254.14255548 -312.23527448 279.83554981 -316.5625 306.375 C-316.72476074 307.3635498 -316.88702148 308.35209961 -317.05419922 309.37060547 C-319.57441454 325.68568359 -319.8457984 341.96570183 -319.875 358.4375 C-319.87867584 359.43306915 -319.88235168 360.42863831 -319.88613892 361.45437622 C-319.92389716 381.03838636 -318.0314661 400.10964766 -314.5625 419.375 C-314.41506348 420.21385742 -314.26762695 421.05271484 -314.11572266 421.91699219 C-309.54129901 447.22090248 -301.03013588 472.37708802 -289.5625 495.375 C-289.10182129 496.32181641 -288.64114258 497.26863281 -288.16650391 498.24414062 C-277.84582421 519.37905364 -265.37901194 539.09693129 -250.5625 557.375 C-249.51642578 558.70724609 -249.51642578 558.70724609 -248.44921875 560.06640625 C-241.93503595 568.24783876 -234.7915999 575.82852499 -227.5625 583.375 C-227.05895996 583.9019043 -226.55541992 584.42880859 -226.03662109 584.97167969 C-219.60728772 591.66204706 -212.8185881 597.60547436 -205.5625 603.375 C-204.72460938 604.08011719 -203.88671875 604.78523437 -203.0234375 605.51171875 C-161.85592327 640.14964235 -111.80124167 661.88032001 -59.5 673.125 C-58.6534082 673.31143066 -57.80681641 673.49786133 -56.93457031 673.68994141 C-37.46791789 677.67842311 -18.01249142 678.89837368 1.8125 678.75 C2.92746857 678.74534729 4.04243713 678.74069458 5.19119263 678.73590088 C21.43712743 678.65653116 37.41957057 678.33842345 53.4375 675.375 C54.53320312 675.17632324 55.62890625 674.97764648 56.7578125 674.77294922 C100.78188659 666.55536827 143.31370671 650.66136556 180.4375 625.375 C181.159375 624.88821777 181.88125 624.40143555 182.625 623.89990234 C208.02009912 606.6958564 232.76612031 585.8341804 251.4375 561.375 C252.46141479 560.06706223 253.48622621 558.7598261 254.51171875 557.453125 C265.69894061 543.11246907 275.45101815 528.17920581 284.4375 512.375 C284.78522461 511.77284668 285.13294922 511.17069336 285.49121094 510.55029297 C305.81987743 475.17841328 317.34024662 433.75683699 321.4375 393.375 C321.5778064 392.13496216 321.5778064 392.13496216 321.72094727 390.86987305 C324.6723552 361.51252915 323.94148751 330.3711028 318.4375 301.375 C318.12401611 299.72298584 318.12401611 299.72298584 317.80419922 298.03759766 C311.77568407 260.30210586 311.77568407 260.30210586 295.4375 227.375 C269.0375 227.375 242.6375 227.375 215.4375 227.375 C215.1075 310.865 214.7775 394.355 214.4375 480.375 C200.10416667 451.70833333 185.77083333 423.04166667 171.4375 394.375 C169.973125 392.11849609 168.50875 389.86199219 167 387.53710938 C160.35052665 375.56059513 162.32726745 359.5570932 162.4244194 346.26140404 C162.44651472 342.07200974 162.42295575 337.88285821 162.40454102 333.69348145 C162.37656301 325.78541932 162.3887784 317.87796751 162.41596508 309.9699235 C162.44495577 300.95633817 162.42833157 291.94300983 162.40815353 282.92942142 C162.36770528 264.4110179 162.3896557 245.89340041 162.4375 227.375 C141.6475 227.375 120.8575 227.375 99.4375 227.375 C98.7775 225.395 98.1175 223.415 97.4375 221.375 C96.42466109 219.24456908 95.36793419 217.13466449 94.27734375 215.04296875 C93.81419518 214.150653 93.81419518 214.150653 93.34169006 213.24031067 C92.35687793 211.34554739 91.36600851 209.45402835 90.375 207.5625 C89.73724174 206.33679059 89.09986937 205.11088031 88.46289062 203.88476562 C83.50099248 194.35651924 78.46405798 184.86960952 73.4375 175.375 C136.4675 175.375 199.4975 175.375 264.4375 175.375 C256.27215592 159.04431184 241.53893855 145.29705254 228.8125 132.5 C228.09111847 131.77071793 228.09111847 131.77071793 227.35516357 131.02670288 C220.73240518 124.34790555 213.83463003 118.18954725 206.4375 112.375 C205.34091064 111.50536621 205.34091064 111.50536621 204.22216797 110.61816406 C194.61037637 103.05050914 184.77431657 95.91887178 174.4375 89.375 C173.85355469 89.00455566 173.26960938 88.63411133 172.66796875 88.25244141 C137.63739892 66.22240733 99.05585481 51.97522677 58.4375 44.375 C57.32568359 44.16327148 56.21386719 43.95154297 55.06835938 43.73339844 C21.32679173 37.61179718 -16.83176584 37.08726388 -50.5625 43.375 Z " fill="#101010" transform="translate(510.5625,153.625)"/>
<path d="M0 0 C24.73837283 -0.04666352 49.47673909 -0.08196108 74.21514702 -0.10362434 C85.70090071 -0.11394908 97.18662711 -0.12803222 108.67236328 -0.15087891 C118.68009621 -0.1707762 128.68780937 -0.18370772 138.69556153 -0.18817699 C143.99750408 -0.19079059 149.29939007 -0.19695841 154.60131454 -0.21146011 C159.58673433 -0.22498627 164.57207399 -0.22923276 169.55751038 -0.22621536 C171.39176493 -0.22676776 173.22602203 -0.23077467 175.06026077 -0.23841095 C177.55572592 -0.24829461 180.05088463 -0.24599318 182.5463562 -0.24050903 C183.64653794 -0.24924756 183.64653794 -0.24924756 184.76894557 -0.25816262 C189.77175758 -0.22824242 189.77175758 -0.22824242 192 2 C128.97 2.33 65.94 2.66 1 3 C0.67 2.01 0.34 1.02 0 0 Z " fill="#020202" transform="translate(584,329)"/>
<path d="M0 0 C4.28668688 -0.04975174 8.57321697 -0.0858847 12.86010742 -0.10986328 C14.31586641 -0.1198685 15.77160557 -0.13347696 17.22729492 -0.15087891 C19.3299654 -0.17537044 21.43236824 -0.18653794 23.53515625 -0.1953125 C25.42826538 -0.21102295 25.42826538 -0.21102295 27.35961914 -0.22705078 C31.25897529 0.0161523 34.30328756 0.79622547 38 2 C38 2.33 38 2.66 38 3 C27.77 3 17.54 3 7 3 C7 2.67 7 2.34 7 2 C4.69 1.67 2.38 1.34 0 1 C0 0.67 0 0.34 0 0 Z " fill="#212020" transform="translate(495,191)"/>
<path d="M0 0 C0.33 0 0.66 0 1 0 C2.95488722 16.09022556 2.95488722 16.09022556 0 22 C-0.35169068 23.32860925 -0.68770276 24.66158328 -1 26 C-1.66 25.67 -2.32 25.34 -3 25 C-2.01 16.75 -1.02 8.5 0 0 Z " fill="#1E1E1E" transform="translate(831,547)"/>
<path d="M0 0 C0 0.66 0 1.32 0 2 C-1.2065625 1.9690625 -1.2065625 1.9690625 -2.4375 1.9375 C-4.93354885 1.70366379 -4.93354885 1.70366379 -6 3 C-8.875 3.25 -8.875 3.25 -12 3 C-13.6953125 1.484375 -13.6953125 1.484375 -15 0 C-13.25093341 -0.19601608 -11.50068154 -0.38147403 -9.75 -0.5625 C-8.77546875 -0.66691406 -7.8009375 -0.77132812 -6.796875 -0.87890625 C-4.2368648 -0.98974468 -2.41851841 -0.77738092 0 0 Z " fill="#1D1D1D" transform="translate(483,156)"/>
<path d="M0 0 C0.33 0 0.66 0 1 0 C1 5.28 1 10.56 1 16 C0.34 16 -0.32 16 -1 16 C-1.82791734 13.0923543 -2.16193659 10.45909481 -2.1875 7.4375 C-2.20167969 6.67308594 -2.21585938 5.90867187 -2.23046875 5.12109375 C-2 3 -2 3 0 0 Z " fill="#201F1F" transform="translate(872,491)"/>
<path d="M0 0 C1.0494188 3.14825641 0.98655124 3.98701503 0.1875 7.0625 C0.01605469 7.75472656 -0.15539062 8.44695312 -0.33203125 9.16015625 C-1 11 -1 11 -3 13 C-3.99 12.67 -4.98 12.34 -6 12 C-4.02 8.04 -2.04 4.08 0 0 Z " fill="#1E1E1E" transform="translate(506,265)"/>
<path d="M0 0 C0.33 0 0.66 0 1 0 C1.33 5.28 1.66 10.56 2 16 C1.01 15.34 0.02 14.68 -1 14 C-1.328125 12.01171875 -1.328125 12.01171875 -1.25 9.6875 C-1.21132813 8.48867188 -1.21132813 8.48867188 -1.171875 7.265625 C-0.98340172 4.78120448 -0.62286117 2.41358705 0 0 Z " fill="#222222" transform="translate(869,462)"/>
<path d="M0 0 C1.32 0.33 2.64 0.66 4 1 C5.046875 2.84765625 5.046875 2.84765625 5.75 5.0625 C5.99234375 5.79597656 6.2346875 6.52945312 6.484375 7.28515625 C6.65453125 7.85105469 6.8246875 8.41695313 7 9 C6.34 9.66 5.68 10.32 5 11 C3.35 7.37 1.7 3.74 0 0 Z " fill="#212121" transform="translate(555,452)"/>
<path d="M0 0 C2.72286806 4.08430208 2.38524534 6.14590877 2 11 C1.01 11.66 0.02 12.32 -1 13 C-0.67 8.71 -0.34 4.42 0 0 Z " fill="#1A1A1A" transform="translate(155,460)"/>
<path d="M0 0 C0.66 0.33 1.32 0.66 2 1 C-0.475 5.455 -0.475 5.455 -3 10 C-3.66 9.34 -4.32 8.68 -5 8 C-4.67 7.01 -4.34 6.02 -4 5 C-3.34 5 -2.68 5 -2 5 C-1.34 3.35 -0.68 1.7 0 0 Z " fill="#1B1B1B" transform="translate(466,639)"/>
<path d="M0 0 C1.96713413 2.95070119 2.65358161 4.53581611 3 8 C2.01 9.485 2.01 9.485 1 11 C-1.03684712 6.92630576 -1.0257259 4.41062136 0 0 Z " fill="#191818" transform="translate(205,609)"/>
<path d="M0 0 C4.67461851 -0.32613618 7.16674383 0.29417212 11 3 C8.36749612 4.31625194 7.19820944 3.74813658 4.375 3.0625 C3.14910156 2.77052734 3.14910156 2.77052734 1.8984375 2.47265625 C0.95871094 2.23869141 0.95871094 2.23869141 0 2 C0 1.34 0 0.68 0 0 Z " fill="#1C1E1E" transform="translate(579,199)"/>
<path d="M0 0 C0.33 0 0.66 0 1 0 C1.24954005 1.43410368 1.47392642 2.87260072 1.6875 4.3125 C1.87892578 5.51326172 1.87892578 5.51326172 2.07421875 6.73828125 C2 9 2 9 -1 12 C-0.67 8.04 -0.34 4.08 0 0 Z " fill="#CFCFCF" transform="translate(869,561)"/>
<path d="M0 0 C0.66 0.33 1.32 0.66 2 1 C2.59355614 3.64860427 2.74209269 6.29197322 3 9 C2.34 9 1.68 9 1 9 C-1.125 3.375 -1.125 3.375 0 0 Z " fill="#181818" transform="translate(193,562)"/>
<path d="M0 0 C0.33 0.99 0.66 1.98 1 3 C-1.64 2.67 -4.28 2.34 -7 2 C-7 1.34 -7 0.68 -7 0 C-3.89953913 -1.03348696 -2.94389782 -1.17755913 0 0 Z " fill="#161616" transform="translate(405,813)"/>
<path d="M0 0 C0.33 1.32 0.66 2.64 1 4 C-0.8125 5.5625 -0.8125 5.5625 -3 7 C-3.99 6.67 -4.98 6.34 -6 6 C-4.02 4.02 -2.04 2.04 0 0 Z " fill="#232323" transform="translate(743,735)"/>
<path d="M0 0 C0.66 0 1.32 0 2 0 C0.25 5.75 0.25 5.75 -2 8 C-2.66 7.67 -3.32 7.34 -4 7 C-3.67 6.01 -3.34 5.02 -3 4 C-2.34 4 -1.68 4 -1 4 C-0.67 2.68 -0.34 1.36 0 0 Z " fill="#1C1E1D" transform="translate(505,374)"/>
<path d="M0 0 C1.46726798 3.81489674 0.43336419 6.29011622 -1 10 C-2.1875 8.375 -2.1875 8.375 -3 6 C-1.625 2.75 -1.625 2.75 0 0 Z " fill="#1C1C1A" transform="translate(483,310)"/>
<path d="M0 0 C-0.33 0.99 -0.66 1.98 -1 3 C-3.97 2.67 -6.94 2.34 -10 2 C-6.00889681 0.0044484 -4.30013434 -0.19546065 0 0 Z " fill="#171717" transform="translate(543,192)"/>
<path d="M0 0 C0.33 0 0.66 0 1 0 C1 2.97 1 5.94 1 9 C0.01 8.01 -0.98 7.02 -2 6 C-1.34 4.02 -0.68 2.04 0 0 Z " fill="#0F0F0F" transform="translate(725,626)"/>
<path d="M0 0 C1.98 0 3.96 0 6 0 C5.67 0.99 5.34 1.98 5 3 C3.02 3 1.04 3 -1 3 C-0.67 2.01 -0.34 1.02 0 0 Z " fill="#161616" transform="translate(567,864)"/>
<path d="M0 0 C0 0.99 0 1.98 0 3 C-2.3125 3.625 -2.3125 3.625 -5 4 C-5.99 3.34 -6.98 2.68 -8 2 C-2.25 0 -2.25 0 0 0 Z " fill="#212121" transform="translate(629,811)"/>
<path d="M0 0 C2.50298434 2.93828597 3.46930939 5.17902761 4 9 C1.33264727 6.51047079 -0.55746343 4.36591866 -2 1 C-1.34 0.67 -0.68 0.34 0 0 Z " fill="#EBEBEB" transform="translate(249,692)"/>
<path d="M0 0 C0.66 0.33 1.32 0.66 2 1 C0.68 3.64 -0.64 6.28 -2 9 C-2.66 7.68 -3.32 6.36 -4 5 C-2.68 3.35 -1.36 1.7 0 0 Z " fill="#1F2120" transform="translate(432,516)"/>
<path d="M0 0 C2.15377564 2.62198774 3.40072174 4.64404172 4 8 C3.34 8 2.68 8 2 8 C1.34 7.01 0.68 6.02 0 5 C-0.66 4.67 -1.32 4.34 -2 4 C-1.34 2.68 -0.68 1.36 0 0 Z " fill="#050505" transform="translate(512,254)"/>
</svg>
