<?xml version="1.0" encoding="UTF-8"?>
<svg version="1.1" xmlns="http://www.w3.org/2000/svg" width="500" height="500">
<path d="M0 0 C0.99303635 0.00040787 0.99303635 0.00040787 2.00613403 0.00082397 C11.9509948 0.01959098 21.51040527 0.41442484 31.3125 2.1875 C32.51777344 2.38214844 33.72304688 2.57679687 34.96484375 2.77734375 C60.79015142 7.35706778 87.59642967 19.02441216 108.3125 35.1875 C108.3125 35.8475 108.3125 36.5075 108.3125 37.1875 C108.98539062 37.37957031 109.65828125 37.57164063 110.3515625 37.76953125 C114.50560731 39.75886933 117.39424226 42.69746919 120.6875 45.875 C121.32171875 46.47505859 121.9559375 47.07511719 122.609375 47.69335938 C135.08846887 59.54849855 135.08846887 59.54849855 138.75 64.5 C139.24371094 65.15613281 139.73742187 65.81226563 140.24609375 66.48828125 C141.3125 68.1875 141.3125 68.1875 141.3125 70.1875 C141.9725 70.1875 142.6325 70.1875 143.3125 70.1875 C147.3125 75.59926471 147.3125 75.59926471 147.3125 78.1875 C147.9725 78.1875 148.6325 78.1875 149.3125 78.1875 C150.66921017 80.64171149 152.01236413 83.10222455 153.34375 85.5703125 C154.74710042 88.16883999 156.19410611 90.73883791 157.65625 93.3046875 C167.03043764 110.05594529 173.43387666 128.17906988 176.3125 147.1875 C176.48305908 148.22463135 176.65361816 149.2617627 176.8293457 150.33032227 C177.36302328 154.59084378 177.49242494 158.7354405 177.515625 163.0234375 C177.52132507 163.86105621 177.52702515 164.69867493 177.53289795 165.56167603 C177.54230529 167.33163204 177.54886487 169.10160524 177.55273438 170.87158203 C177.56234645 173.52018793 177.59337116 176.16798503 177.625 178.81640625 C177.69368951 189.94215484 176.65193366 200.31618345 174.3125 211.1875 C173.91587158 213.0897937 173.91587158 213.0897937 173.51123047 215.03051758 C172.29175809 220.75845857 170.74851365 225.84700855 168.3125 231.1875 C167.62355445 233.29119381 166.93627201 235.39543251 166.25 237.5 C161.8688774 249.92645683 154.86113501 261.43425579 147.3125 272.1875 C146.56119006 273.37417166 145.81106043 274.56159202 145.0625 275.75 C144.485 276.554375 143.9075 277.35875 143.3125 278.1875 C142.6525 278.1875 141.9925 278.1875 141.3125 278.1875 C141.0546875 278.74953125 140.796875 279.3115625 140.53125 279.890625 C139.17080223 282.45454579 137.58461038 284.63976365 135.8125 286.9375 C135.2040625 287.73671875 134.595625 288.5359375 133.96875 289.359375 C133.4221875 289.96265625 132.875625 290.5659375 132.3125 291.1875 C131.6525 291.1875 130.9925 291.1875 130.3125 291.1875 C130.3125 291.8475 130.3125 292.5075 130.3125 293.1875 C129.6525 293.1875 128.9925 293.1875 128.3125 293.1875 C128.3125 293.8475 128.3125 294.5075 128.3125 295.1875 C127.6525 295.1875 126.9925 295.1875 126.3125 295.1875 C126.3125 295.8475 126.3125 296.5075 126.3125 297.1875 C124.703125 298.84375 124.703125 298.84375 122.5625 300.6875 C121.86640625 301.2959375 121.1703125 301.904375 120.453125 302.53125 C118.46789208 304.06726963 116.59377955 305.1598966 114.3125 306.1875 C114.3125 306.8475 114.3125 307.5075 114.3125 308.1875 C108.90073529 312.1875 108.90073529 312.1875 106.3125 312.1875 C106.3125 312.8475 106.3125 313.5075 106.3125 314.1875 C103.40701118 316.22919485 101.91107954 317.1875 98.3125 317.1875 C98.3125 317.8475 98.3125 318.5075 98.3125 319.1875 C75.3172134 332.88992117 51.24112414 343.03135618 24.39868164 345.95336914 C22.42476223 346.17490088 20.45788743 346.45677913 18.4921875 346.7421875 C-30.09010731 352.79924756 -75.41114973 334.52654437 -113.6015625 306.01171875 C-114.28992188 305.40972656 -114.97828125 304.80773437 -115.6875 304.1875 C-115.6875 303.5275 -115.6875 302.8675 -115.6875 302.1875 C-116.2762793 301.92324219 -116.86505859 301.65898437 -117.47167969 301.38671875 C-119.76822584 300.14381056 -121.29583166 298.83743519 -123.140625 297 C-123.759375 296.38382812 -124.378125 295.76765625 -125.015625 295.1328125 C-125.64984375 294.49085938 -126.2840625 293.84890625 -126.9375 293.1875 C-127.5871875 292.54554688 -128.236875 291.90359375 -128.90625 291.2421875 C-129.51984375 290.62601562 -130.1334375 290.00984375 -130.765625 289.375 C-131.32668945 288.81167969 -131.88775391 288.24835938 -132.46582031 287.66796875 C-133.6875 286.1875 -133.6875 286.1875 -133.6875 284.1875 C-134.3475 284.1875 -135.0075 284.1875 -135.6875 284.1875 C-138.6875 280.72596154 -138.6875 280.72596154 -138.6875 278.1875 C-139.3475 278.1875 -140.0075 278.1875 -140.6875 278.1875 C-142.1328125 276.23828125 -142.1328125 276.23828125 -143.8125 273.5 C-144.43640625 272.48550781 -145.0603125 271.47101563 -145.703125 270.42578125 C-146.35796875 269.35714844 -147.0128125 268.28851563 -147.6875 267.1875 C-148.63882813 265.72376953 -148.63882813 265.72376953 -149.609375 264.23046875 C-173.61202531 226.83433957 -181.82819603 181.0470244 -172.47265625 137.5480957 C-167.80748227 117.12783547 -159.5003959 98.07479056 -148.6875 80.1875 C-148.0275 80.1875 -147.3675 80.1875 -146.6875 80.1875 C-146.0275 78.2075 -145.3675 76.2275 -144.6875 74.1875 C-144.0275 74.1875 -143.3675 74.1875 -142.6875 74.1875 C-142.4296875 73.46175781 -142.171875 72.73601562 -141.90625 71.98828125 C-140.63507501 69.06702333 -139.14733598 66.87877351 -137.1875 64.375 C-136.5790625 63.58480469 -135.970625 62.79460937 -135.34375 61.98046875 C-134.7971875 61.38878906 -134.250625 60.79710937 -133.6875 60.1875 C-133.0275 60.1875 -132.3675 60.1875 -131.6875 60.1875 C-131.460625 59.63578125 -131.23375 59.0840625 -131 58.515625 C-129.30024074 55.50057583 -127.13945184 53.37519631 -124.6875 50.9375 C-123.800625 50.04546875 -122.91375 49.1534375 -122 48.234375 C-119.6875 46.1875 -119.6875 46.1875 -117.6875 46.1875 C-117.6875 45.5275 -117.6875 44.8675 -117.6875 44.1875 C-115.76162421 42.55610063 -113.84423283 41.05026775 -111.8125 39.5625 C-111.25691406 39.14226562 -110.70132813 38.72203125 -110.12890625 38.2890625 C-105.94985288 35.1875 -105.94985288 35.1875 -103.6875 35.1875 C-103.6875 34.5275 -103.6875 33.8675 -103.6875 33.1875 C-101.7075 32.5275 -99.7275 31.8675 -97.6875 31.1875 C-97.6875 30.5275 -97.6875 29.8675 -97.6875 29.1875 C-90.38189187 23.56356016 -81.83718107 19.69110718 -73.5 15.875 C-72.58653809 15.45476562 -71.67307617 15.03453125 -70.73193359 14.6015625 C-65.57533842 12.29200196 -60.46555277 10.41532032 -55.02880859 8.8815918 C-52.84360314 8.2337775 -50.76186187 7.4728604 -48.64453125 6.6328125 C-44.31281678 4.96618346 -39.91482643 3.98899519 -35.375 3.0625 C-34.59705078 2.89363281 -33.81910156 2.72476563 -33.01757812 2.55078125 C-22.06557761 0.26874012 -11.15960292 -0.00775315 0 0 Z M-13.4453125 18.23828125 C-42.5223071 19.46441958 -69.24482149 31.91325562 -92.9375 48 C-93.51137451 48.38534912 -94.08524902 48.77069824 -94.67651367 49.16772461 C-96.0518272 50.12129504 -97.37552842 51.14850316 -98.6875 52.1875 C-98.6875 52.8475 -98.6875 53.5075 -98.6875 54.1875 C-99.50154297 54.5278125 -99.50154297 54.5278125 -100.33203125 54.875 C-103.39233586 56.58024436 -105.8275205 58.81504752 -108.375 61.1875 C-108.89739258 61.67081787 -109.41978516 62.15413574 -109.95800781 62.65209961 C-114.81450375 67.20413859 -119.60489458 71.91928947 -123.6875 77.1875 C-123.6875 77.8475 -123.6875 78.5075 -123.6875 79.1875 C-124.3475 79.1875 -125.0075 79.1875 -125.6875 79.1875 C-126.60235446 80.96952921 -127.49399624 82.76349495 -128.375 84.5625 C-130.79837534 88.59628074 -131.92602406 89.95169315 -136.484375 91.36328125 C-140.21125846 91.93065622 -143.92095871 92.12448193 -147.6875 92.1875 C-146.66172144 95.4126553 -145.66473524 98.22797069 -144 101.1875 C-141.46280596 106.98680066 -144.45458008 112.67561216 -146.625 118.25 C-146.88990234 118.94416016 -147.15480469 119.63832031 -147.42773438 120.35351562 C-148.50159916 123.15942038 -149.58186828 125.94578756 -150.78515625 128.69921875 C-151.99768178 132.04284975 -152.59933886 135.44256564 -153.1875 138.9375 C-153.31423096 139.68265869 -153.44096191 140.42781738 -153.5715332 141.19555664 C-160.83140882 184.96170991 -152.92527914 224.45277119 -127.875 261.4375 C-127.29697632 262.29855347 -127.29697632 262.29855347 -126.70727539 263.17700195 C-125.75358115 264.5520714 -124.72641612 265.87563036 -123.6875 267.1875 C-123.0275 267.1875 -122.3675 267.1875 -121.6875 267.1875 C-121.39875 267.785625 -121.11 268.38375 -120.8125 269 C-119.64007974 271.38077792 -119.64007974 271.38077792 -117.6875 274.1875 C-117.0275 274.1875 -116.3675 274.1875 -115.6875 274.1875 C-115.30078125 275.06148438 -115.30078125 275.06148438 -114.90625 275.953125 C-113.58915983 278.3677903 -112.13661616 280.00490177 -110.1875 281.9375 C-109.27484375 282.85789062 -109.27484375 282.85789062 -108.34375 283.796875 C-106.79265723 285.40184088 -106.79265723 285.40184088 -104.6875 285.1875 C-104.6875 285.8475 -104.6875 286.5075 -104.6875 287.1875 C-87.73503528 303.962452 -62.56513258 316.25720865 -39.6875 322.1875 C-39.02508301 322.36410156 -38.36266602 322.54070312 -37.68017578 322.72265625 C3.30264294 333.39516811 46.29482422 325.86571135 82.53125 304.75 C87.18976263 301.99413696 91.80805626 299.19046249 96.3125 296.1875 C96.3125 295.5275 96.3125 294.8675 96.3125 294.1875 C97.9625 293.5275 99.6125 292.8675 101.3125 292.1875 C101.3125 291.5275 101.3125 290.8675 101.3125 290.1875 C103.3125 289.1875 105.3125 288.1875 107.3125 287.1875 C107.3125 286.5275 107.3125 285.8675 107.3125 285.1875 C107.9725 285.1875 108.6325 285.1875 109.3125 285.1875 C109.3125 284.5275 109.3125 283.8675 109.3125 283.1875 C109.86679687 282.96578125 110.42109375 282.7440625 110.9921875 282.515625 C120.23603 277.2245367 127.31621375 265.58658842 133.17333984 256.87402344 C134.21545702 255.33117186 135.28790884 253.80892217 136.36328125 252.2890625 C149.92765788 232.01045535 157.90372319 205.55688675 158.3125 181.1875 C158.33957031 179.99253906 158.36664063 178.79757813 158.39453125 177.56640625 C158.43728503 173.76909359 158.39615882 169.98401704 158.3125 166.1875 C158.29574219 165.11371094 158.27898437 164.03992188 158.26171875 162.93359375 C157.36074735 141.54195844 151.30431624 117.17522437 139.3125 99.1875 C128.0925 99.1875 116.8725 99.1875 105.3125 99.1875 C104.9825 139.7775 104.6525 180.3675 104.3125 222.1875 C101.19533012 220.62891506 100.37983084 217.53367941 98.9375 214.5 C95.07197633 206.55608736 90.8881486 198.80982611 86.61376953 191.0793457 C86.1289209 190.19980225 85.64407227 189.32025879 85.14453125 188.4140625 C84.71889893 187.64658691 84.2932666 186.87911133 83.85473633 186.08837891 C83.34579834 185.13108887 82.83686035 184.17379883 82.3125 183.1875 C81.68640083 182.22268204 81.68640083 182.22268204 81.0476532 181.2383728 C76.26393747 173.17866207 76.57976219 165.08496717 76.60546875 156.0234375 C76.59233198 154.37861313 76.57702173 152.73380483 76.55964661 151.08901978 C76.52001457 146.79168074 76.50962036 142.49476581 76.50561523 138.19726562 C76.49624236 133.7993501 76.45880315 129.4016795 76.42382812 125.00390625 C76.35947432 116.39839062 76.3286512 107.79324121 76.3125 99.1875 C66.0825 99.1875 55.8525 99.1875 45.3125 99.1875 C44.6525 97.2075 43.9925 95.2275 43.3125 93.1875 C41.98093169 90.80161074 40.52228497 88.53459248 39.04296875 86.23828125 C36.48076041 81.72116 34.46146024 76.91521253 32.3125 72.1875 C61.3525 72.1875 90.3925 72.1875 120.3125 72.1875 C119.6525 71.8575 118.9925 71.5275 118.3125 71.1875 C117.9103125 70.32125 117.9103125 70.32125 117.5 69.4375 C115.91506789 66.43447074 113.82382464 64.44769217 111.3125 62.1875 C110.6525 62.1875 109.9925 62.1875 109.3125 62.1875 C109.3125 61.5275 109.3125 60.8675 109.3125 60.1875 C108.6525 60.1875 107.9925 60.1875 107.3125 60.1875 C107.3125 59.5275 107.3125 58.8675 107.3125 58.1875 C88.57195454 39.82364892 61.29449355 26.82324157 35.875 21.5 C34.85929932 21.28577393 33.84359863 21.07154785 32.79711914 20.85083008 C25.95201799 19.44485983 19.31453885 18.29625329 12.3125 18.1875 C11.52020996 18.17380371 10.72791992 18.16010742 9.91162109 18.14599609 C2.12259667 18.02961643 -5.65697518 18.13303345 -13.4453125 18.23828125 Z " fill="#F1F1F1" transform="translate(250.6875,72.8125)"/>
<path d="M0 0 C0.66 0 1.32 0 2 0 C2 0.66 2 1.32 2 2 C2.66 2 3.32 2 4 2 C4.28085449 2.59723877 4.56170898 3.19447754 4.85107422 3.80981445 C10.16633884 15.08615373 15.57281 26.2833808 21.43896484 37.28442383 C24.03512787 42.15442135 26.55395377 47.05297489 29 52 C32.31761191 58.70344585 35.78568699 65.32006935 39.28686523 71.92919922 C42.28600499 77.6050525 45.18133531 83.32465769 48.02905273 89.07763672 C50.46069432 93.97026835 52.99192173 98.80408203 55.5625 103.625 C59.81775504 111.6090216 63.87482614 119.67713443 67.88378906 127.78808594 C74.94047624 142.04609574 82.31610175 156.13660909 89.74609375 170.203125 C93.99027599 178.23849011 98.17729944 186.28612422 102.1953125 194.4375 C103.56987183 197.15091583 104.97782045 199.82829431 106.4296875 202.5 C107.05315063 203.65218018 107.05315063 203.65218018 107.68920898 204.82763672 C108.50443821 206.32799014 109.326581 207.8246133 110.15649414 209.31689453 C110.52637451 209.99864746 110.89625488 210.68040039 111.27734375 211.3828125 C111.60984131 211.98496582 111.94233887 212.58711914 112.28491211 213.20751953 C113 215 113 215 113 219 C102.77 219 92.54 219 82 219 C82 218.01 82 217.02 82 216 C81.34 216 80.68 216 80 216 C79.30777344 214.59814453 79.30777344 214.59814453 78.6015625 213.16796875 C73.64000213 203.1608414 68.49743742 193.25831994 63.265625 183.39013672 C61.99608371 180.99260407 60.73175385 178.59238834 59.46875 176.19140625 C58.66672726 174.66923891 57.86464637 173.1471022 57.0625 171.625 C56.69713135 170.92963135 56.3317627 170.2342627 55.95532227 169.51782227 C55.43796509 168.53833618 55.43796509 168.53833618 54.91015625 167.5390625 C54.46361694 166.69142334 54.46361694 166.69142334 54.00805664 165.82666016 C53.67539795 165.2238623 53.34273926 164.62106445 53 164 C52.59347198 163.14903244 52.18694397 162.29806488 51.76809692 161.42131042 C50.24062705 158.78648631 50.24062705 158.78648631 47.58918762 158.39872742 C46.16022408 158.415382 46.16022408 158.415382 44.70239258 158.43237305 C43.08105156 158.43293953 43.08105156 158.43293953 41.42695618 158.43351746 C40.26125595 158.45932388 39.09555573 158.48513031 37.89453125 158.51171875 C36.10301888 158.52233086 36.10301888 158.52233086 34.27531433 158.53315735 C30.45374398 158.56118698 26.63362889 158.62394642 22.8125 158.6875 C20.2246305 158.71257155 17.63673809 158.7353867 15.04882812 158.75585938 C8.69872068 158.81104202 2.34946428 158.89475551 -4 159 C-5.41640084 161.66481832 -6.83157996 164.33027396 -8.24609375 166.99609375 C-8.64131226 167.73935913 -9.03653076 168.48262451 -9.44372559 169.24841309 C-13.43037971 176.76604534 -17.22641568 184.37382312 -21 192 C-25.42734607 200.94738833 -29.94150066 209.83256803 -34.64208984 218.63989258 C-37.19196304 223.4320091 -39.6537378 228.26057093 -42.0625 233.125 C-44.77791454 238.60420911 -47.56459548 244.03905771 -50.4375 249.4375 C-50.77982666 250.08283691 -51.12215332 250.72817383 -51.47485352 251.39306641 C-53.87437743 255.87437743 -53.87437743 255.87437743 -55 257 C-57.14558827 257.08775605 -59.29404421 257.10695219 -61.44140625 257.09765625 C-62.74658203 257.09443359 -64.05175781 257.09121094 -65.39648438 257.08789062 C-66.7851569 257.07953401 -68.17382877 257.07106905 -69.5625 257.0625 C-70.95507656 257.05748666 -72.34765481 257.05292347 -73.74023438 257.04882812 C-77.1601987 257.03699434 -80.58007844 257.0205088 -84 257 C-83.41208854 253.44425491 -82.47279117 250.57870797 -80.84765625 247.3671875 C-80.40639404 246.48909424 -79.96513184 245.61100098 -79.51049805 244.70629883 C-79.03265869 243.77197021 -78.55481934 242.8376416 -78.0625 241.875 C-77.56596924 240.89362061 -77.06943848 239.91224121 -76.55786133 238.90112305 C-72.697471 231.29765894 -68.74200154 223.74589917 -64.75 216.2109375 C-61.67499525 210.39927059 -58.64348377 204.56507004 -55.61636353 198.72836304 C-54.71450584 196.98956767 -53.81173475 195.25124616 -52.90893555 193.51293945 C-49.5510026 187.03538467 -46.23973712 180.53750763 -43 174 C-42.34 174 -41.68 174 -41 174 C-40.89147705 173.29093506 -40.7829541 172.58187012 -40.67114258 171.85131836 C-39.92847486 168.69612874 -38.76397402 166.24989897 -37.26171875 163.37890625 C-36.69469238 162.2894873 -36.12766602 161.20006836 -35.54345703 160.07763672 C-34.6247583 158.33764404 -34.6247583 158.33764404 -33.6875 156.5625 C-33.05284928 155.34931634 -32.41857627 154.13593503 -31.78466797 152.92236328 C-27.34554532 144.44752146 -22.76581152 136.05337311 -18.13525391 127.68164062 C-14.69987767 121.42198314 -11.54729725 115.07538238 -8.67236328 108.53857422 C-6.59917539 103.91322463 -4.04969176 100.05404994 -1 96 C-0.01 96.66 0.98 97.32 2 98 C2 98.99 2 99.98 2 101 C2.66 101 3.32 101 4 101 C5.98616441 104.74633395 7.96270371 108.4976629 9.9375 112.25 C10.78344727 113.84521484 10.78344727 113.84521484 11.64648438 115.47265625 C12.18466797 116.49746094 12.72285156 117.52226562 13.27734375 118.578125 C13.77484131 119.52075195 14.27233887 120.46337891 14.78491211 121.43457031 C16 124 16 124 17 128 C24.92 127.505 24.92 127.505 33 127 C27.55939283 115.83558226 27.55939283 115.83558226 21.5 105 C18.40450055 99.81977643 15.71589413 94.50771771 13.06835938 89.09106445 C10.14185048 83.1546155 6.86630676 77.4708088 3.46875 71.79296875 C2 69 2 69 2 66 C1.34 66 0.68 66 0 66 C-0.09152344 66.50917969 -0.18304688 67.01835937 -0.27734375 67.54296875 C-1.29453153 71.00140721 -2.93194383 74.11238964 -4.5625 77.3125 C-5.09931396 78.37754761 -5.09931396 78.37754761 -5.64697266 79.46411133 C-7.9851328 84.07846985 -10.40956834 88.64027364 -12.875 93.1875 C-17.12216247 101.03021717 -20.90903486 109.08316827 -24.703125 117.15234375 C-26.7355532 121.4699684 -28.84814819 125.74071534 -31 130 C-31.66 130 -32.32 130 -33 130 C-33.12745605 130.57492188 -33.25491211 131.14984375 -33.38623047 131.7421875 C-34.46257829 135.70164044 -36.36400017 139.30539568 -38.125 143 C-38.53097412 143.85505127 -38.93694824 144.71010254 -39.35522461 145.59106445 C-42.07130294 151.24151077 -45.03408396 156.65409807 -48.2734375 162.0234375 C-50.22356176 165.38541642 -51.97126927 168.82775428 -53.6875 172.3125 C-57.15903275 179.36068383 -60.74352489 186.34534323 -64.375 193.3125 C-64.89924561 194.32159424 -65.42349121 195.33068848 -65.96362305 196.37036133 C-66.7047937 197.78998169 -66.7047937 197.78998169 -67.4609375 199.23828125 C-67.90228027 200.08430908 -68.34362305 200.93033691 -68.79833984 201.80200195 C-70 204 -70 204 -72 207 C-73.85913086 206.75488281 -73.85913086 206.75488281 -76 206 C-77.23266602 204.22167969 -77.23266602 204.22167969 -78.25390625 201.921875 C-78.82334961 200.67470703 -78.82334961 200.67470703 -79.40429688 199.40234375 C-79.78650391 198.52707031 -80.16871094 197.65179688 -80.5625 196.75 C-81.33237952 195.0354436 -82.10445655 193.32187195 -82.87890625 191.609375 C-83.42635498 190.39217773 -83.42635498 190.39217773 -83.98486328 189.15039062 C-85.16134685 186.65821475 -86.5730493 184.35585213 -88 182 C-89.03101947 179.68020619 -90.02877562 177.34545681 -91 175 C-94.22976479 167.40519596 -97.50375768 159.85740379 -101.25 152.5 C-108.06706579 139.08033791 -114.13458039 125.27759796 -120.1875 111.5 C-122.95497968 105.20261473 -125.93314735 99.04667596 -129.06005859 92.9206543 C-131.81682578 87.47873312 -134.28622418 81.93502649 -136.65454102 76.31396484 C-137.85988532 73.47790374 -139.1120358 70.81327366 -140.69921875 68.16796875 C-142 66 -142 66 -142 64 C-137.65882638 63.80724519 -133.31736798 63.62860407 -128.97509766 63.46289062 C-127.49870326 63.40457353 -126.02245456 63.34243537 -124.54638672 63.27636719 C-122.42181939 63.18194197 -120.29710326 63.10137487 -118.171875 63.0234375 C-116.8940918 62.97106934 -115.61630859 62.91870117 -114.29980469 62.86474609 C-111.13365257 62.99452179 -109.54384667 63.17403043 -107 65 C-105.59313254 67.37039433 -104.40285782 69.63631429 -103.25 72.125 C-102.54465238 73.59263135 -101.83891281 75.06007438 -101.1328125 76.52734375 C-100.77735352 77.27612793 -100.42189453 78.02491211 -100.05566406 78.79638672 C-98.77213331 81.47565327 -97.43621881 84.12592219 -96.09350586 86.77587891 C-93.54374886 91.80854774 -91.0519499 96.86278165 -88.66015625 101.97265625 C-82.90609888 114.2624975 -76.68785529 126.19169555 -70 138 C-65.23323664 129.04803918 -60.48191438 120.09882619 -56 111 C-52.10216275 103.11067037 -48.17260868 95.24825122 -44 87.5 C-39.20721844 78.59744346 -34.7387436 69.538894 -30.2578125 60.4765625 C-27.53176261 54.98677539 -24.76506793 49.53548609 -21.86401367 44.13671875 C-16.79680649 34.70191878 -12.15360461 25.09186432 -7.578125 15.41015625 C-5.12827044 10.23460474 -2.5831615 5.11013715 0 0 Z " fill="#F5F5F5" transform="translate(248,102)"/>
<path d="M0 0 C-0.33 1.32 -0.66 2.64 -1 4 C-19.15 4 -37.3 4 -56 4 C-56 3.01 -56 2.02 -56 1 C-48.3461962 0.85732626 -40.69238711 0.71493898 -33.03857422 0.57275391 C-30.43310423 0.52431785 -27.82763548 0.47581542 -25.22216797 0.42724609 C-21.48405268 0.35757411 -17.74593307 0.28813828 -14.0078125 0.21875 C-12.83695099 0.19687622 -11.66608948 0.17500244 -10.45974731 0.15246582 C-9.37877777 0.13244507 -8.29780823 0.11242432 -7.18408203 0.09179688 C-6.22921906 0.07403198 -5.27435608 0.05626709 -4.29055786 0.03796387 C-2.86051233 0.01426219 -1.43024194 0 0 0 Z " fill="#8D8D8D" transform="translate(299,257)"/>
<path d="M0 0 C0.66 0.33 1.32 0.66 2 1 C1.21654285 2.17219543 0.42297164 3.33763668 -0.375 4.5 C-0.81585938 5.1496875 -1.25671875 5.799375 -1.7109375 6.46875 C-2.13632812 6.9740625 -2.56171875 7.479375 -3 8 C-3.66 8 -4.32 8 -5 8 C-5 8.99 -5 9.98 -5 11 C-7 10 -7 10 -8 7 C-4.25 4 -4.25 4 -2 4 C-2 3.34 -2 2.68 -2 2 C-1.34 2 -0.68 2 0 2 C0 1.34 0 0.68 0 0 Z " fill="#B8B8B8" transform="translate(360,356)"/>
<path d="M0 0 C0.66 0.99 1.32 1.98 2 3 C1.01 3.33 0.02 3.66 -1 4 C-0.67 5.32 -0.34 6.64 0 8 C-1.98 8.99 -1.98 8.99 -4 10 C-3.29445932 6.33118845 -1.72264494 3.29549466 0 0 Z " fill="#9E9E9E" transform="translate(244,202)"/>
<path d="M0 0 C4.62 0 9.24 0 14 0 C14 0.33 14 0.66 14 1 C12.22932584 1.16834933 10.45845388 1.33461909 8.6875 1.5 C7.70136719 1.5928125 6.71523437 1.685625 5.69921875 1.78125 C3 2 3 2 0 2 C0 1.34 0 0.68 0 0 Z " fill="#DDDEDB" transform="translate(106,166)"/>
<path d="M0 0 C0.89674777 2.51089376 1.13172674 3.64535109 0.1875 6.1875 C-1 8 -1 8 -3 9 C-2.44271087 5.65626525 -1.64826111 2.96687001 0 0 Z " fill="#B6B6B5" transform="translate(210,267)"/>
<path d="M0 0 C0.99 0.33 1.98 0.66 3 1 C3 3.31 3 5.62 3 8 C2.34 8 1.68 8 1 8 C-0.35439668 5.29120665 -0.06501451 2.99066732 0 0 Z " fill="#BBBBBB" transform="translate(92,230)"/>
<path d="M0 0 C0.33 0.66 0.66 1.32 1 2 C0.06421005 4.35981813 -0.93347808 6.69631264 -2 9 C-2.66 9 -3.32 9 -4 9 C-2.94124926 5.59687262 -1.99097846 2.98646769 0 0 Z " fill="#AEAEAD" transform="translate(234,222)"/>
<path d="M0 0 C0.33 0.66 0.66 1.32 1 2 C0.06421005 4.35981813 -0.93347808 6.69631264 -2 9 C-2.66 9 -3.32 9 -4 9 C-2.94124926 5.59687262 -1.99097846 2.98646769 0 0 Z " fill="#A1A1A1" transform="translate(239,212)"/>
<path d="M0 0 C2.97 1.98 2.97 1.98 6 4 C3 5 3 5 0 5 C0 4.34 0 3.68 0 3 C-0.66 2.67 -1.32 2.34 -2 2 C-1.34 2 -0.68 2 0 2 C0 1.34 0 0.68 0 0 Z " fill="#B8B8B8" transform="translate(366,115)"/>
</svg>
